<?xml version="1.0" encoding="UTF-8"?><svg xmlns="http://www.w3.org/2000/svg" viewBox="0 0 441.96 143.62"><defs><style>.d{fill:#fab68e;}.e{fill:#ed6a88;}.f{fill:#ec6986;}.g{fill:#fff;}.h{fill:#813812;}.i{fill:#818924;}.j{fill:#65af34;}.k{fill:#aaa;}.l{fill:#e23d54;}.m{fill:#e23d57;}.n{fill:#171412;}.o{fill:#0a0505;}.p{fill:#5bbc2e;}</style></defs><g id="a"/><g id="b"><g id="c"><g><path class="k" d="M222.15,113.48c1.75,.97,3.12,2.34,4.11,4.08,.99,1.75,1.48,3.77,1.48,6.06s-.49,4.32-1.48,6.08c-.99,1.76-2.36,3.13-4.11,4.11-1.75,.97-3.73,1.46-5.93,1.46-1.69,0-3.24-.33-4.64-.99-1.4-.66-2.57-1.62-3.48-2.88v3.61h-3.96v-31.91h4.13v12.56c.92-1.2,2.06-2.11,3.44-2.73s2.88-.92,4.51-.92c2.21,0,4.18,.49,5.93,1.46Zm-2.34,17.18c1.16-.67,2.08-1.62,2.75-2.84,.67-1.22,1.01-2.62,1.01-4.19s-.34-2.97-1.01-4.19c-.67-1.22-1.59-2.16-2.75-2.82-1.16-.66-2.47-.99-3.93-.99s-2.74,.33-3.91,.99c-1.18,.66-2.09,1.6-2.75,2.82-.66,1.22-.99,2.62-.99,4.19s.33,2.97,.99,4.19c.66,1.22,1.58,2.16,2.75,2.84,1.17,.67,2.48,1.01,3.91,1.01s2.77-.34,3.93-1.01Z"/><path class="k" d="M251.69,112.23l-11.05,25.07c-.98,2.32-2.11,3.96-3.42,4.9-1.3,.95-2.87,1.42-4.71,1.42-1.12,0-2.2-.18-3.25-.54-1.05-.36-1.91-.88-2.6-1.57l1.76-3.1c1.17,1.12,2.54,1.68,4.08,1.68,1,0,1.84-.27,2.52-.8,.67-.53,1.28-1.44,1.83-2.73l.73-1.59-10.06-22.75h4.3l7.96,18.23,7.87-18.23h4.04Z"/><path class="k" d="M282.65,107.72c2.24,1.86,3.35,4.43,3.35,7.7s-1.12,5.83-3.35,7.7c-2.24,1.86-5.3,2.79-9.2,2.79h-7.44v9.12h-4.3v-30.1h11.74c3.9,0,6.97,.93,9.2,2.79Zm-3.1,12.71c1.43-1.16,2.15-2.83,2.15-5.01s-.72-3.85-2.15-5.01c-1.43-1.16-3.51-1.74-6.24-1.74h-7.31v13.5h7.31c2.72,0,4.8-.58,6.24-1.74Z"/><path class="k" d="M296.53,113.05c1.4-.69,3.11-1.03,5.12-1.03v4c-.23-.03-.54-.04-.95-.04-2.24,0-3.99,.67-5.27,2s-1.91,3.23-1.91,5.7v11.35h-4.13v-22.79h3.96v3.83c.72-1.32,1.78-2.32,3.18-3.01Z"/><path class="k" d="M324.66,125h-18.49c.26,2.01,1.14,3.62,2.64,4.84,1.51,1.22,3.38,1.83,5.61,1.83,2.72,0,4.92-.92,6.58-2.75l2.28,2.67c-1.03,1.2-2.32,2.12-3.85,2.75-1.53,.63-3.25,.95-5.14,.95-2.41,0-4.54-.49-6.41-1.48-1.86-.99-3.3-2.37-4.32-4.15s-1.53-3.78-1.53-6.02,.5-4.2,1.48-5.98c.99-1.78,2.35-3.16,4.08-4.15s3.69-1.48,5.87-1.48,4.12,.49,5.83,1.48c1.71,.99,3.04,2.37,4,4.15,.96,1.78,1.44,3.81,1.44,6.11,0,.32-.03,.73-.09,1.25Zm-16.15-7.7c-1.33,1.2-2.11,2.78-2.34,4.73h14.62c-.23-1.92-1.01-3.49-2.34-4.71s-2.99-1.83-4.97-1.83-3.63,.6-4.97,1.81Z"/><path class="k" d="M351.62,112.23v19.69c0,3.98-.99,6.93-2.97,8.84-1.98,1.91-4.93,2.86-8.86,2.86-2.15,0-4.2-.29-6.15-.88-1.95-.59-3.53-1.43-4.73-2.52l1.98-3.18c1.06,.92,2.37,1.64,3.93,2.17,1.56,.53,3.17,.8,4.84,.8,2.67,0,4.64-.63,5.91-1.89,1.27-1.26,1.91-3.18,1.91-5.76v-1.81c-.97,1.18-2.17,2.06-3.59,2.64s-2.96,.88-4.62,.88c-2.18,0-4.15-.46-5.91-1.4-1.76-.93-3.15-2.24-4.15-3.91-1-1.68-1.5-3.59-1.5-5.74s.5-4.06,1.5-5.74c1-1.68,2.39-2.97,4.15-3.89,1.76-.92,3.73-1.38,5.91-1.38,1.72,0,3.32,.32,4.79,.95,1.48,.63,2.69,1.56,3.63,2.79v-3.53h3.91Zm-7.85,17.29c1.19-.63,2.12-1.51,2.79-2.64,.67-1.13,1.01-2.42,1.01-3.85,0-2.21-.73-3.99-2.19-5.35-1.46-1.36-3.34-2.04-5.63-2.04s-4.21,.68-5.68,2.04c-1.46,1.36-2.19,3.15-2.19,5.35,0,1.43,.34,2.72,1.01,3.85,.67,1.13,1.61,2.01,2.79,2.64,1.19,.63,2.54,.95,4.06,.95s2.83-.32,4.02-.95Z"/><path class="k" d="M355.9,107.07c-.53-.52-.8-1.15-.8-1.89s.26-1.38,.8-1.91c.53-.53,1.2-.79,2-.79s1.47,.25,2,.75c.53,.5,.8,1.13,.8,1.87s-.27,1.43-.8,1.96-1.2,.8-2,.8-1.47-.26-2-.77Zm-.06,5.16h4.13v22.79h-4.13v-22.79Z"/><path class="k" d="M366.62,134.53c-1.72-.5-3.07-1.14-4.04-1.91l1.72-3.27c1,.72,2.22,1.29,3.66,1.72,1.43,.43,2.88,.65,4.34,.65,3.61,0,5.42-1.03,5.42-3.1,0-.69-.24-1.23-.73-1.63s-1.1-.69-1.83-.88c-.73-.19-1.77-.39-3.12-.62-1.83-.29-3.33-.62-4.49-.99-1.16-.37-2.16-1-2.99-1.89-.83-.89-1.25-2.14-1.25-3.74,0-2.06,.86-3.72,2.58-4.97,1.72-1.25,4.03-1.87,6.92-1.87,1.52,0,3.04,.19,4.56,.56,1.52,.37,2.77,.88,3.74,1.5l-1.76,3.27c-1.86-1.2-4.06-1.81-6.58-1.81-1.75,0-3.08,.29-4,.86-.92,.57-1.38,1.33-1.38,2.28,0,.75,.26,1.33,.77,1.76s1.15,.75,1.91,.95c.76,.2,1.83,.43,3.2,.69,1.83,.32,3.32,.65,4.45,1.01,1.13,.36,2.1,.97,2.9,1.83,.8,.86,1.2,2.06,1.2,3.61,0,2.06-.88,3.71-2.64,4.92s-4.16,1.83-7.2,1.83c-1.86,0-3.66-.25-5.38-.75Z"/><path class="k" d="M399.82,133.69c-.6,.52-1.35,.91-2.24,1.18-.89,.27-1.81,.41-2.75,.41-2.29,0-4.07-.62-5.33-1.85-1.26-1.23-1.89-3-1.89-5.29v-12.51h-3.87v-3.4h3.87v-4.99h4.13v4.99h6.54v3.4h-6.54v12.34c0,1.23,.31,2.18,.92,2.84s1.5,.99,2.64,.99c1.26,0,2.34-.36,3.22-1.08l1.29,2.97Z"/><path class="k" d="M410.01,113.05c1.4-.69,3.11-1.03,5.12-1.03v4c-.23-.03-.54-.04-.95-.04-2.24,0-3.99,.67-5.27,2s-1.91,3.23-1.91,5.7v11.35h-4.13v-22.79h3.96v3.83c.72-1.32,1.78-2.32,3.18-3.01Z"/><path class="k" d="M441.96,112.23l-11.05,25.07c-.98,2.32-2.11,3.96-3.42,4.9-1.3,.95-2.87,1.42-4.71,1.42-1.12,0-2.2-.18-3.25-.54-1.05-.36-1.91-.88-2.6-1.57l1.76-3.1c1.17,1.12,2.54,1.68,4.08,1.68,1,0,1.84-.27,2.52-.8,.67-.53,1.28-1.44,1.83-2.73l.73-1.59-10.06-22.75h4.3l7.96,18.23,7.87-18.23h4.04Z"/></g><path class="p" d="M159.26,42.4c2.74-2.27,4.11-5.5,4.11-9.68s-1.37-7.52-4.11-9.79c-2.74-2.27-6.74-3.41-12.01-3.41h-14.28v26.29h14.28c5.26,0,9.27-1.14,12.01-3.41m6.44-33.81c4.94,2.23,8.74,5.41,11.41,9.52,2.67,4.11,4,8.98,4,14.6s-1.33,10.4-4,14.55c-2.67,4.15-6.47,7.32-11.41,9.52-4.94,2.2-10.76,3.3-17.47,3.3h-15.25v20.88h-17.52V5.24h32.78c6.71,0,12.53,1.12,17.47,3.35"/><rect class="p" x="193.01" y="5.24" width="17.52" height="75.72"/><path class="p" d="M270.14,42.4c2.74-2.27,4.11-5.5,4.11-9.68s-1.37-7.52-4.11-9.79c-2.74-2.27-6.74-3.41-12.01-3.41h-14.28v26.29h14.28c5.26,0,9.27-1.14,12.01-3.41m6.44-33.81c4.94,2.23,8.74,5.41,11.41,9.52,2.67,4.11,4,8.98,4,14.6s-1.33,10.4-4,14.55c-2.67,4.15-6.47,7.32-11.41,9.52-4.94,2.2-10.76,3.3-17.47,3.3h-15.25v20.88h-17.52V5.24h32.78c6.71,0,12.53,1.12,17.47,3.35"/><polygon class="p" points="362.52 66.9 362.52 80.97 303.89 80.97 303.89 5.24 361.11 5.24 361.11 19.31 321.3 19.31 321.3 35.75 356.46 35.75 356.46 49.38 321.3 49.38 321.3 66.9 362.52 66.9"/><path class="p" d="M418.66,22.93c-2.74-2.27-6.74-3.41-12.01-3.41h-14.28v26.4h14.28c5.26,0,9.27-1.15,12.01-3.46,2.74-2.31,4.11-5.55,4.11-9.73s-1.37-7.52-4.11-9.79m4.44,58.04l-14.6-21.09h-16.12v21.09h-17.52V5.24h32.78c6.71,0,12.53,1.12,17.47,3.35,4.94,2.24,8.74,5.41,11.41,9.52,2.67,4.11,4,8.98,4,14.61s-1.35,10.48-4.06,14.55c-2.7,4.07-6.54,7.19-11.52,9.36l16.98,24.34h-18.82Z"/><g><path class="m" d="M85.82,44.85c0,23.47-19.02,42.49-42.49,42.49S.85,68.32,.85,44.85,19.87,2.37,43.34,2.37s42.49,19.02,42.49,42.49"/><path d="M44.35,0C19.85,0,0,19.86,0,44.35s19.85,44.35,44.35,44.35,44.35-19.85,44.35-44.35S68.84,0,44.35,0m0,85.76c-22.87,0-41.4-18.54-41.4-41.4S21.48,2.94,44.35,2.94s41.4,18.54,41.4,41.41-18.54,41.4-41.4,41.4"/><path class="h" d="M68.87,45.34s3.64-10.03,3.13-14.15c-.51-4.12-4.63-12.79-6.79-14.94-2.15-2.16-6.28-9.55-8.52-10.91-2.25-1.36-6.41-3.51-9.13-2.71-2.72,.79-9.32,4.63-12.04,8.38-2.71,3.75-7.35,7.31-11.24,9.51-3.89,2.2-16.06,6.46-14.99,16.35,1.08,9.88,10.16,15.17,10.16,15.17l.75-10.59,4.17-9.84,4.69-2.81,5.46,.96,2.92-.21,10.73-5.62,17.7,10.77,3.01,10.64Z"/><path class="i" d="M34.16,64.04c1.32,.87,2.63,1.76,3.91,2.69l2.9,2.1c.39,.34,.8,.66,1.24,.94,.1,.16,.27,.23,.4,.35,.33,.3,.77,.5,.95,.95,0,.31-.01,.62-.02,.93-.71-.03-1.42-.07-2.13-.1-1.25-.06-2.5-.26-3.75-.09-1.7,.23-3.3,.68-4.1,2.44-3.57-.58-7.1-1.31-10.56-2.34-3.05-.92-6.03-2.01-8.73-3.74-1.5-.96-2.85-2.09-3.74-3.67-1.22-2.18-1.08-4.37,.1-6.49,.75-1.35,2.02-1.97,3.52-2.2,1.72-.27,3.01,.07,3.14,.09,2.19,.35,4.26,1.41,6.26,2.33"/><path class="d" d="M44.56,26.77l-2.4-1.5c1.2-2.01,1.51-4.23,1.89-6.52,.16-1.01,.19-2.04,.23-3.06,.03-.81-.44-1.76-.12-2.5,.41-.92,1.66-1.48,2.44-2.08,.47-.36,.45-.51,.55-1.1,.13-.74,1.16-.98,2.26-.18,.56,.4,.75,.56,1.41,.73,1.64,.43,2.36,1.9,2.42,3.58,.03,.89,.69,3.83,.37,4.71-.3,.82-1.35,3.15-2,3.74-.38,.34-.66,.71-1.16,.79-.26,.04-.83-.98-.79-.73,.02,.18,.61,.55,.61,.73,0,.36-.27,.92-.25,1.28,.03,.42-.64,1.32-.98,1.53-.65,.39-3.75,.51-4.49,.57"/><path class="e" d="M31.81,28.94c2.32,.82,2.04,1.34,4.46,1.07,2.64-.3,4.72-1.69,6.18-3.87,1.77,.92,4.93,1.02,6.67-.03,.33-.2,.55-.38,.74-.75,.18-.34,.18-.66,.19-1.02,21.44,5.27,19.33,22.95,17,33.95-.61,2.89,3.96,.11,2.96,2.65-.74,1.89-24.19,14-24.22,14.11-.03,.11-14.17-11.81-14.09-11.76,.4,.23,.28,.87-2.11-.23-2-.91-6.34-4.7-7.22-5.18-8.45-12.34,1.45-31.79,9.44-28.95"/><path d="M45.77,75.76c-.34,0-.76-.35-7.53-6.03-3.76-3.15-5.53-4.64-6.38-5.37-.68,.14-1.69-.25-2.57-.66-1.35-.61-3.54-2.34-5.31-3.73-.83-.65-1.69-1.32-1.95-1.47l-.15-.08-.1-.14c-5.5-8.03-3.61-19.54,1.39-26.03,2.74-3.56,5.98-5.02,8.87-3.98,.76,.27,1.25,.51,1.64,.7,.78,.38,1.04,.5,2.5,.34,2.36-.26,4.27-1.46,5.67-3.56l.35-.53,.56,.29c1.65,.86,4.55,.85,5.98-.01,.27-.16,.36-.25,.47-.47,.1-.19,.11-.38,.11-.71v-.89l.88,.21c23.66,5.82,19.2,26.86,17.52,34.79-.08,.39-.02,.5-.02,.5,.1,.12,.75,.1,1.03,.1,.69-.02,1.48-.03,1.89,.58,.41,.59,.12,1.34,.02,1.59-.42,1.05-4.34,3.7-22.12,13.17-.93,.49-1.76,.94-2.14,1.15l-.05,.21-.51,.04s-.05,0-.07,0Zm-13.43-12.85c1.55,1.34,11.57,9.74,13.51,11.3,.4-.23,1.03-.56,2.03-1.1,13.63-7.26,20.86-11.45,21.49-12.47,.03-.08,.05-.14,.06-.19-.17-.02-.45-.01-.64-.01-.72,.01-1.62,.03-2.15-.61-.34-.41-.43-.98-.28-1.7,2.69-12.69,3.3-27.84-15.69-32.92-.04,.15-.1,.3-.18,.46-.27,.52-.6,.79-1,1.04-1.87,1.13-4.85,1.06-6.79,.31-1.6,2.13-3.78,3.4-6.34,3.69-1.79,.2-2.33-.01-3.28-.47-.36-.18-.82-.39-1.5-.64h0c-2.28-.81-4.93,.47-7.28,3.51-4.66,6.06-6.45,16.75-1.43,24.24,.38,.24,1.01,.73,1.99,1.51,1.62,1.27,3.83,3.01,5.02,3.55,.34,.15,.61,.27,.83,.35l-.47-1.12,1.81,1.03c.11,.07,.21,.15,.29,.24Z"/><path class="l" d="M62.67,47.16c0-5.46-4.43-9.89-9.89-9.89-2.83,0-5.38,1.2-7.18,3.1-1.8-1.9-4.35-3.1-7.18-3.1-5.46,0-9.89,4.43-9.89,9.89,0,2.53,.96,4.83,2.52,6.58,3.94,7.67,12.01,13.99,14.15,13.99,2.89,0,13.32-7.03,16.01-13.56,.59-1.45,.87-2.79,.97-3.93,.32-.97,.49-2,.49-3.08"/><path class="d" d="M37.2,52.16s-1.91,1.87-.84,3.68c1.07,1.82,2.42,3.47,2.42,3.47l6.65-.6,1.67-1.89-2.89-4.34-7-.33Z"/><path d="M45.36,68.15c-.38,0-.75-.03-1.11-.08-2.89-.45-5.05-2.57-7.03-4.69-2.28-2.46-4.65-5.13-6.34-8.29-1.31-2.46-2.73-6.26-2.01-10.37,.68-3.86,3.27-7.07,6.6-8.19h0c2.65-.89,4.55,.1,6.22,.98,1.19,.62,2.29,1.21,3.66,1.17,1.42-.04,2.69-.53,4.02-1.06,2.05-.8,4.16-1.64,6.88-.74,3.06,1.01,5.48,3.99,6.15,7.59,.54,2.91,.06,6.15-1.43,9.66-1.85,4.36-4.81,8.2-8.54,11.11-2.49,1.94-4.87,2.92-7.07,2.92Zm-9.44-30.28h0c-2.85,.95-5.07,3.74-5.66,7.09-.65,3.71,.66,7.19,1.87,9.45,1.61,3.01,3.91,5.6,6.13,8,1.8,1.94,3.76,3.87,6.21,4.25,2.12,.33,4.49-.53,7.09-2.55,3.55-2.76,6.35-6.41,8.11-10.55,1.38-3.24,1.83-6.22,1.34-8.84-.58-3.1-2.63-5.66-5.2-6.51-2.23-.73-4.02-.03-5.92,.72-1.39,.55-2.83,1.11-4.51,1.15-1.72,.07-3.05-.66-4.35-1.33-1.63-.85-3.04-1.58-5.12-.89Z"/><path class="d" d="M58.94,53.41s2.26,1.9,1.59,3.9c-.66,2-2.47,3.92-2.47,3.92l-6.92,1.17-1.7-1.89,2.72-4.84,6.78-2.26Z"/><path d="M52.38,63.09c-.06,0-.12,0-.18,0-1.71-.02-2.44-.81-2.76-1.46-.94-1.97,.76-5.12,1.45-5.98,1.04-1.31,2.8-1.69,4.5-2.06,.86-.18,1.67-.36,2.32-.64,1.73-.74,2.8-2.15,3.37-4.44l1.38,.34c-.68,2.72-2.05,4.49-4.18,5.4-.78,.34-1.7,.53-2.58,.72-1.46,.31-2.97,.64-3.69,1.56-.62,.78-1.84,3.31-1.28,4.49,.08,.16,.31,.64,1.5,.66,1.88,.04,5.07-.45,6.19-1.62l.17-.18,.24-.03c4.66-.67,8.14-1.75,11.93-3.16l.49,1.33c-3.81,1.42-7.32,2.51-12,3.21-1.72,1.55-5.36,1.88-6.87,1.88Zm-12.78-10.28c-.9,.09-1.83,.19-2.68,.11-2.66-.23-4.9-2.39-6.12-4.33-1.33-2.13-1.6-4.92-.71-7.27l1.32,.5c-.74,1.94-.51,4.25,.59,6.01,1.03,1.65,2.89,3.48,5.04,3.67,.71,.07,1.54-.02,2.41-.11,1.73-.18,3.52-.37,4.92,.56,.92,.61,3.51,3.08,3.23,5.24-.09,.72-.55,1.7-2.17,2.25-1.8,.63-5.3,1.26-7.28,.4-3.69,.64-6.34,.98-9.57,.98-.71,0-1.46-.02-2.24-.05l.06-1.42c4.32,.19,7.1-.14,11.73-.95l.24-.04,.21,.11c1.43,.76,4.66,.23,6.38-.38,1.13-.38,1.2-.92,1.23-1.09,.17-1.29-1.77-3.33-2.61-3.88"/><path class="f" d="M38.18,55.35c-.41-1.18-1.56-2.47-1.56-2.47-6.53-1.89-8.38-8.43-6.33-12.11-3.83,6.88-5.29,9.65-3.96,12.7,.72,1.66,1.85,3.14,3.31,4.22,.6,.45-.15,1.76,.6,1.72,3.7-.21,5.18-.4,8.2-.94,.25-1,.12-2.03-.26-3.11"/><path class="f" d="M58.94,53.89c4.46-2.66,6.2-10.57,3.12-12.22,5.2,2.78,6.04,15.93,2.88,16.95-4.28,1.39-4.65,1.37-6.37,1.37,0,0,.68-1.97,.68-3.7s-.3-2.41-.3-2.41"/><path class="j" d="M34.11,64.12c3.24,1.92,6.19,4.13,9.09,6.51,.11,.09,.21,.18,.28,.3,.06,.09,.16,1.07,.07,1.06-2.1-.1-4.28-.45-6.37-.12-1.52,.24-2.95,.9-3.6,2.37-.09,.19-1.84-.28-2.02-.32-1.07-.21-2.14-.44-3.2-.68-2.19-.48-4.37-1.01-6.5-1.7-.15-.05-.3-.09-.45-.15-1.92-.64-3.8-1.42-5.58-2.39-1.73-.94-3.43-2.01-4.64-3.59-.53-.7-.96-1.47-1.22-2.32-.77-2.53,.24-5.83,2.78-6.93,1.17-.5,2.48-.57,3.74-.38,1.97,.29,3.78,1.16,5.54,2.05,1.84,.93,3.7,1.79,5.54,2.71,1.73,.87,3.44,1.78,5.13,2.73,.47,.27,.94,.54,1.41,.82"/><path d="M33.4,75.01c-.44,0-1.03-.14-1.8-.33l-.17-.04c-1.07-.21-2.15-.44-3.22-.68-1.81-.4-4.19-.95-6.57-1.72-.2-.06-.33-.1-.46-.15-2.11-.7-3.98-1.5-5.69-2.44-1.76-.96-3.56-2.09-4.86-3.78-.62-.81-1.07-1.66-1.33-2.54-.83-2.73,.15-6.48,3.18-7.78,1.18-.51,2.6-.66,4.13-.43,2.04,.3,3.89,1.17,5.76,2.12,.9,.45,1.8,.89,2.7,1.32,.95,.46,1.9,.92,2.84,1.39,1.93,.97,3.61,1.87,5.16,2.75,.48,.27,.95,.55,1.42,.82h0c2.9,1.72,5.81,3.81,9.18,6.57,.15,.13,.75,.7,.88,.92,.15,.22-.12,.95-.35,1.33l-.22,.38-.45-.02c-.56-.03-1.13-.07-1.71-.12-1.5-.12-3.05-.24-4.51,0-1.56,.24-2.59,.9-3.07,1.96-.16,.34-.43,.46-.84,.46ZM15.24,56.42c-.82,0-1.56,.14-2.21,.42-2.23,.97-3.04,3.92-2.38,6.07,.22,.71,.59,1.42,1.1,2.09,1.14,1.49,2.8,2.52,4.42,3.4,1.64,.89,3.43,1.66,5.47,2.34l.37,.12c2.39,.77,4.73,1.31,6.51,1.7,1.06,.23,2.13,.46,3.19,.67l.23,.05c.62,.15,.99,.23,1.21,.26,.73-1.27,2.08-2.09,3.93-2.38,1.62-.25,3.25-.13,4.83,0,.31,.02,.61,.05,.91,.07-.02-.02-.04-.04-.06-.06-3.31-2.73-6.18-4.78-9.01-6.46h0c-.46-.27-.93-.55-1.4-.81-1.52-.86-3.19-1.75-5.1-2.71-.94-.47-1.88-.93-2.82-1.38-.91-.44-1.82-.88-2.72-1.33-1.76-.89-3.49-1.71-5.33-1.98-.4-.06-.78-.09-1.15-.09Z"/><path class="d" d="M48.25,73.73c-.01,.18,.13,.24,.13,.42,0,.39,.04,.58,.16,.94,.13,.43,.87,1.4,1.07,1.8-.55,.15-6.12,1.04-10.02,.87-1.37-.06-.99-2.35-1.03-3.72,0-.32,0-.65,.07-.97,.22-.87-.47-1.22,.36-1.24,2.55-.05,6.77,.44,9.31,.8-.06,0-.35,.17-.36,.28-.04,.27-.07,.55-.08,.82"/><path class="j" d="M60.03,62.15c.37-.12,.66-.39,.97-.6,1.71-1.09,3.47-2.09,5.26-3.03,1.42-.74,2.13-1.34,3.66-1.83,.93-.3,2.25-.88,3.92-1.14,1.15,.05,2.3,.13,3.4,.48,1.84,.59,3.91,1.85,4.46,3.61,.85,2.75-1.06,5.2-2.96,7.22-1.49,1.58-2.39,2.91-4.31,3.88-3.43,1.74-7.29,3.39-11,4.36-4.17,1.08-7.79,1.84-12.06,2.42-.16,.02-.85-.23-1-.19-.42,.12-1.04-.62-1.29-.99-.45-.9-.65-1.62-.84-2.6,0-.03-.11-.33-.11-.37-.04-.36-.12-.47-.16-.84,.04-.1,0-.24-.03-.35,.08-.22-.23-.43-.04-.61,.38-.34,.76-.68,1.14-1.02,1.33-1.08,2.66-2.15,3.98-3.24,.46-.37,.97-.68,1.37-1.11,.2-.13,.4-.27,.6-.41,.99-.73,1.98-1.46,2.98-2.18,.68-.5,1.4-.93,2.05-1.46"/><path d="M40.55,79.04c-1.56,0-2.95-.22-4.74-.73-3.5-1-3.99-3.59-4.01-3.7l1.4-.24-.7,.12,.7-.13c.02,.08,.39,1.84,3,2.59,2.92,.83,4.71,.82,8.3,.34,1.9-.25,3.43-.42,4.44-.53-.17-.3-.33-.61-.47-.94-.2-.38-.36-.78-.45-1.18-.02-.08-.04-.17-.06-.26-.18-.65-.18-.87-.23-1.42-.03-.15-.05-.29-.07-.41l-4.57-.53,.56-1.34,4.32,.37c2.92-2.73,6.51-5.31,9.74-7.56,.87-.61,1.74-1.21,2.6-1.83h0c11.31-8.07,17.24-6.5,19.27-5.45,1.97,1.02,3.1,2.89,3.09,5.14,0,3.06-2.23,7.45-8.44,10.61-6.81,3.3-13.79,5.24-23.34,6.49l-.21,.03-.2-.1c-.16-.08-.32-.18-.47-.3-.8,.08-2.7,.28-5.33,.62-1.65,.22-2.94,.34-4.14,.34Zm9.24-3.76c.37,.67,.88,1.31,1.12,1.58l.13,.14c9.23-1.24,16-3.13,22.57-6.31,5.63-2.87,7.64-6.71,7.65-9.35,0-1.72-.82-3.1-2.32-3.88-3.74-1.93-10.39,.07-17.8,5.35h0c-.86,.62-1.74,1.23-2.61,1.83-3.26,2.28-6.63,4.63-9.52,7.37,0,.1,0,.2,.01,.31,.09,.48,.2,1.09,.31,1.65,.13,.45,.28,.9,.46,1.31Z"/><path class="o" d="M19.82,52.42c-4.7-1.07-8.82-5.8-10.47-9.92-.06-.15-.12-.3-.17-.46-.44-.87-.67-1.89-.71-2.95-.44-3.42,.34-6.98,2.27-9.87,2.68-4.03,7.04-6.26,11.26-8.42,2.52-1.29,5.12-2.62,7.33-4.33,2.05-1.58,3.85-3.56,5.59-5.47,1.11-1.23,2.27-2.49,3.49-3.67,2.76-2.65,7.08-5.74,11.98-5.44,3.32,.21,6.22,1.77,8.16,4.39,.76,1.03,1.42,2.14,2.06,3.22,.5,.85,1.02,1.73,1.58,2.54,.51,.74,1.06,1.52,1.71,2.09,4.99,4.4,7.65,9.28,8.36,15.36,.62,5.31-.38,10.83-3.06,16.85l-1.29-.58c2.57-5.79,3.54-11.06,2.95-16.11-.67-5.72-3.18-10.31-7.89-14.46-.78-.68-1.39-1.54-1.94-2.36-.59-.85-1.12-1.75-1.63-2.62-.62-1.04-1.26-2.12-1.98-3.1-1.69-2.28-4.22-3.64-7.11-3.82-4.39-.29-8.36,2.59-10.91,5.05-1.19,1.14-2.32,2.39-3.42,3.6-1.78,1.96-3.62,3.98-5.77,5.64-2.31,1.78-4.97,3.14-7.55,4.46-4.24,2.17-8.24,4.22-10.72,7.94-.7,1.05-1.23,2.19-1.59,3.39,.02-.02,.04-.05,.06-.07,1.99-2.27,4.97-3.75,7.62-4.9,3.42-1.48,6.98-2.73,10.58-3.72,.65-.18,1.3-.35,1.95-.52,2.89-.76,5.88-1.54,8.37-2.96,3.76-2.14,3.87-3.67,4.01-7.69-.01,0-.03,0-.04,0l.05-1.42c1.26,.05,1.93-.71,3.02-2.05,.53-.65,1.14-1.39,1.92-2.06l.57-.48,.45,.6c.9,1.19,2.12,1.67,3.2,2.09,.31,.12,.6,.23,.85,.35l.32,.15,.13,.63c.76,3.58,1.71,8.04-.74,10.74-.87,.96-2.21,2.11-3.69,2.11v-1.42c.74,0,1.68-.58,2.63-1.64,1.95-2.15,1.11-6.17,.42-9.42-.15-.06-.3-.12-.46-.18-.97-.38-2.24-.88-3.31-1.97-.45,.45-.84,.93-1.23,1.4-.78,.95-1.58,1.93-2.75,2.35h.05v.11c-.16,4.31-.24,6.48-4.74,9.03-2.66,1.51-5.73,2.32-8.71,3.1-.65,.17-1.29,.34-1.94,.52-3.53,.97-7.03,2.2-10.39,3.65-2.51,1.09-5.31,2.48-7.11,4.54-1.06,1.21-1.61,3.01-1.58,4.68,.11,.86,.31,1.72,.6,2.55,.04,.07,.08,.14,.12,.21l-.04,.02c.03,.09,.07,.18,.1,.27,1.47,3.69,5.29,8.12,9.46,9.07l-.31,1.38Z"/><path class="g" d="M39.3,74.68c0-8.1-6.56-14.66-14.66-14.66s-14.66,6.56-14.66,14.66,6.57,14.66,14.66,14.66,14.66-6.56,14.66-14.66"/><path class="n" d="M24.62,59.29c-8.52,0-15.43,6.9-15.43,15.43s6.91,15.42,15.43,15.42,15.43-6.91,15.43-15.42-6.91-15.43-15.43-15.43m0,28.53c-7.24,0-13.11-5.86-13.11-13.1s5.87-13.11,13.11-13.11,13.1,5.87,13.1,13.11-5.87,13.1-13.1,13.1"/><path class="m" d="M27.15,84.36h-5.02c-.63,0-1.13-.51-1.13-1.13v-17.11c0-.63,.51-1.13,1.13-1.13h5.02c.63,0,1.13,.5,1.13,1.13v17.11c0,.62-.5,1.13-1.13,1.13"/><path class="m" d="M14.96,77.19v-5.02c0-.62,.5-1.13,1.13-1.13h17.11c.63,0,1.13,.51,1.13,1.13v5.02c0,.63-.5,1.13-1.13,1.13H16.08c-.63,0-1.13-.5-1.13-1.13"/></g></g></g></svg>